HIERARCHY
ROOT Hips
{
	OFFSET 0.000000 0.000000 0.000000 
	CHANNELS 6 Xposition Yposition Zposition Zrotation Yrotation Xrotation
	JOINT LeftUpLeg
	{
		OFFSET 1.363060 -1.794630 0.839290 
		CHANNELS 3 Zrotation Yrotation Xrotation
		JOINT LeftLeg
		{
			OFFSET 2.448110 -6.726130 0.000000 
			CHANNELS 3 Zrotation Yrotation Xrotation
			JOINT LeftFoot
			{
				OFFSET 2.562200 -7.039590 0.000000 
				CHANNELS 3 Zrotation Yrotation Xrotation
				JOINT LeftToeBase
				{
					OFFSET 0.157640 -0.433110 2.322550 
					CHANNELS 3 Zrotation Yrotation Xrotation
					End Site
					{
						OFFSET 0.000000 0.000000 0.000000 
					}
				}
			}
		}
	}
	JOINT RightUpLeg
	{
		OFFSET -1.305520 -1.794630 0.839290 
		CHANNELS 3 Zrotation Yrotation Xrotation
		JOINT RightLeg
		{
			OFFSET -2.542530 -6.985550 0.000000 
			CHANNELS 3 Zrotation Yrotation Xrotation
			JOINT RightFoot
			{
				OFFSET -2.568260 -7.056230 0.000000 
				CHANNELS 3 Zrotation Yrotation Xrotation
				JOINT RightToeBase
				{
					OFFSET -0.164730 -0.452590 2.363150 
					CHANNELS 3 Zrotation Yrotation Xrotation
					End Site
					{
						OFFSET 0.000000 0.000000 0.000000 
					}
				}
			}
		}
	}
	JOINT Spine
	{
		OFFSET 0.028270 2.035590 -0.193380 
		CHANNELS 3 Zrotation Yrotation Xrotation
		JOINT Spine1
		{
			OFFSET 0.056720 2.048850 -0.042750 
			CHANNELS 3 Zrotation Yrotation Xrotation
			JOINT Neck1
			{
				OFFSET -0.054170 1.746240 0.172020 
				CHANNELS 3 Zrotation Yrotation Xrotation
				JOINT Head
				{
					OFFSET 0.104070 1.761360 -0.123970 
					CHANNELS 3 Zrotation Yrotation Xrotation
					End Site
					{
						OFFSET 0.000000 0.000000 0.000000 
					}
				}
			}
			JOINT LeftArm
			{
				OFFSET 3.362410 1.200890 -0.311210 
				CHANNELS 3 Zrotation Yrotation Xrotation
				JOINT LeftForeArm
				{
					OFFSET 4.983000 -0.000000 -0.000000 
					CHANNELS 3 Zrotation Yrotation Xrotation
					JOINT LeftHand
					{
						OFFSET 3.483560 -0.000000 -0.000000 
						CHANNELS 3 Zrotation Yrotation Xrotation
						JOINT LeftHandIndex1
						{
							OFFSET 0.715260 -0.000000 -0.000000 
							CHANNELS 3 Zrotation Yrotation Xrotation
							End Site
							{
								OFFSET 0.000000 0.000000 0.000000 
							}
						}
					}
				}
			}
			JOINT RightArm
			{
				OFFSET -3.136600 1.374050 -0.404650 
				CHANNELS 3 Zrotation Yrotation Xrotation
				JOINT RightForeArm
				{
					OFFSET -5.241900 -0.000000 -0.000000 
					CHANNELS 3 Zrotation Yrotation Xrotation
					JOINT RightHand
					{
						OFFSET -3.444170 -0.000000 -0.000000 
						CHANNELS 3 Zrotation Yrotation Xrotation
						JOINT RightHandIndex1
						{
							OFFSET -0.622530 -0.000000 -0.000000 
							CHANNELS 3 Zrotation Yrotation Xrotation
							End Site
							{
								OFFSET 0.000000 0.000000 0.000000 
							}
						}
					}
				}
			}
		}
	}
}
MOTION
Frames: 15
Frame Time: 0.041667
11.215689 17.734818 34.765240 -176.564652 -5.699377 -173.626657 13.731150 -18.253074 4.335216 -0.971789 1.293931 -0.563770 7.479599 -8.434448 -4.294341 8.419200 16.419100 54.058900 4.817368 27.288305 18.056383 3.374529 -0.505127 -1.699476 0.790444 -19.495751 -48.751412 -3.514500 -11.484700 33.932500 2.740053 -1.500167 -5.839762 -6.971737 -0.352706 -0.715772 15.123097 -0.743785 15.887887 4.555100 0.825200 4.581700 -82.639939 7.034857 21.552424 2.264689 -8.287550 -0.514888 -0.664254 0.824735 -0.048531 -7.125000 0.000000 0.000000 -36.810382 13.136243 -77.984046 -3.929461 14.515894 -1.117413 6.452935 7.056587 17.647342 7.125000 0.000000 0.000000 
11.213515 17.739889 34.756754 -176.033907 -5.741995 -173.672851 14.366703 -17.297941 3.902756 -0.842461 1.209907 -0.527124 7.602491 -8.795015 -3.350879 8.548000 16.507900 54.513500 5.490507 27.639536 18.091221 3.426317 -0.577053 -1.505224 0.647290 -19.280414 -49.070960 -3.476300 -11.428800 33.740100 2.798740 -1.540447 -5.881204 -7.089749 -0.383111 -0.922893 14.056030 -0.726296 15.049412 3.952000 0.687400 3.923600 -82.684342 7.388001 21.554124 2.514949 -8.625468 -0.525791 -0.591537 0.783091 -2.372542 -7.125000 0.000000 0.000000 -37.599978 13.262996 -79.677481 -3.824959 14.625719 -1.065292 6.301418 7.006408 17.666715 7.125000 0.000000 0.000000 
11.210721 17.741545 34.747025 -175.666991 -5.807909 -173.672809 14.837532 -16.633327 3.552111 -0.744473 1.153213 -0.489600 7.748868 -9.170726 -2.663160 8.604900 16.546600 54.713400 5.921968 27.881671 18.081327 3.461405 -0.610064 -1.418148 0.640127 -19.373214 -49.186721 -3.536500 -11.516600 34.042600 2.840543 -1.661400 -5.934849 -7.216813 -0.469498 -1.130534 12.601350 -0.684783 14.072492 3.475400 0.548000 3.558700 -82.692081 7.530258 21.444152 2.624610 -8.741501 -0.515316 -0.543572 0.721940 -4.892812 -7.125000 0.000000 0.000000 -38.366792 13.467693 -81.375145 -3.710716 14.716715 -1.012055 6.262212 7.006882 17.679602 7.125000 0.000000 0.000000 
11.205443 17.743305 34.737296 -175.434074 -5.883685 -173.660412 15.142537 -16.101404 3.267196 -0.687854 1.118682 -0.423109 7.669806 -9.062971 -2.143954 8.660000 16.583900 54.906800 6.132490 27.907872 17.989195 3.482830 -0.651872 -1.307548 0.714216 -19.566641 -49.075561 -3.617100 -11.632700 34.444600 2.860923 -1.615833 -5.964002 -7.392109 -0.481674 -1.279111 11.152121 -0.896027 13.531530 2.510200 0.354200 2.949700 -82.657706 7.439528 21.748194 2.514919 -8.577897 -0.481134 -0.497137 0.686242 -6.503127 -7.125000 0.000000 0.000000 -38.963070 13.400536 -82.318232 -3.677282 14.818498 -0.974493 6.288636 7.011454 17.658708 7.125000 0.000000 0.000000 
11.195196 17.757070 34.720737 -174.947578 -5.579327 -173.840058 15.396794 -16.089799 3.671501 -0.652851 1.088835 -0.536850 7.729570 -9.187672 -2.685815 8.678800 16.596500 54.972400 6.537724 27.721783 17.814507 3.496897 -0.759052 -1.092811 0.946426 -19.793243 -48.343688 -3.561600 -11.553000 34.168600 2.781933 -1.026771 -5.880282 -8.231616 -0.254634 -1.355647 10.030663 -1.445151 13.016369 1.686000 0.031400 2.444700 -81.925798 7.327865 22.823851 2.314878 -8.395161 -0.448234 -0.454120 0.681563 -7.048709 -7.125000 0.000000 0.000000 -38.918511 12.397722 -80.647184 -3.832798 14.908723 -0.989159 6.209870 7.382094 15.793608 7.125000 0.000000 0.000000 
11.174601 17.791120 34.682857 -173.917110 -4.594405 -174.362852 15.567926 -17.174597 5.410689 -0.655422 1.088488 -1.004146 8.230811 -10.052663 -5.416319 8.577200 16.527800 54.616200 7.294324 26.836597 17.350563 3.486889 -0.989217 -0.686754 1.629384 -20.431497 -46.105196 -3.304800 -11.172900 32.865100 2.536659 0.446978 -5.596185 -10.493930 0.303577 -1.367323 7.851462 -2.821684 11.461069 0.027700 -1.130300 1.272700 -79.731065 7.108331 25.227710 2.191448 -8.532668 -0.423068 -0.396106 0.625450 -8.141794 -7.125000 0.000000 0.000000 -37.641683 9.680591 -72.911224 -4.615968 15.202861 -1.204083 5.723909 8.766561 8.981220 7.125000 0.000000 0.000000 
11.181742 17.778701 34.687308 -174.054978 -5.150447 -173.986611 15.839887 -16.722186 4.512710 -0.620472 1.059006 -0.832765 8.030804 -9.610460 -4.529085 8.582400 16.531300 54.634300 6.810051 26.351365 16.651722 3.479510 -1.058746 -0.437312 1.679529 -20.379345 -45.808484 -3.338200 -11.223400 33.036900 2.508574 0.362459 -5.682627 -10.566159 0.228732 -1.479561 7.970871 -2.922859 11.541661 0.069700 -1.182100 1.317800 -79.242933 7.093755 25.738056 2.260572 -8.674112 -0.410264 -0.307332 0.535697 -9.570889 -7.125000 0.000000 0.000000 -37.987066 9.540969 -73.474526 -4.627269 15.275165 -1.187458 5.804589 8.742672 9.300607 7.125000 0.000000 0.000000 
11.106604 17.761313 34.564768 -176.477653 -4.606803 -174.914397 11.495046 -21.563356 9.227699 -1.227692 1.273302 -2.228620 8.952170 -11.288989 -10.623839 8.547300 16.507400 54.510900 3.060080 22.082761 16.442106 3.078928 -0.889358 -1.078241 3.220713 -22.143085 -40.883922 -2.759900 -10.295900 29.940200 2.037869 1.098087 -5.341986 -11.289871 0.558255 -0.378729 8.131956 -3.359460 11.923544 0.135100 -1.384100 1.441200 -78.211481 6.540169 26.698354 2.158376 -8.645062 -0.373379 -0.182924 0.401910 -12.048775 -7.125000 0.000000 0.000000 -37.897083 9.103804 -73.819252 -4.608965 15.228030 -1.177063 6.038069 8.786239 9.528123 7.125000 0.000000 0.000000 
11.087353 17.753033 34.526267 -177.404375 -4.794227 -175.206082 10.048361 -22.817501 10.431332 -1.387256 1.343897 -2.529367 9.174624 -11.788556 -11.824107 8.593000 16.538600 54.671700 1.579235 20.217283 16.187786 2.917701 -0.869740 -1.107763 3.735910 -22.693453 -38.927176 -2.612400 -10.039400 29.104500 1.950176 1.030769 -5.355619 -11.091167 0.493236 -0.351143 7.661484 -3.636187 12.252489 -0.095600 -1.505200 1.507800 -78.150005 6.874207 26.846322 2.123541 -8.614692 -0.367860 -0.133221 0.389741 -11.179970 -7.125000 0.000000 0.000000 -38.413159 9.209937 -74.240911 -4.625491 15.373608 -1.155134 6.007786 8.732487 9.478890 7.125000 0.000000 0.000000 
11.083420 17.753447 34.508052 -177.368880 -4.992844 -175.261316 9.987241 -23.235444 10.669149 -1.386499 1.354638 -2.605821 9.376729 -12.204363 -11.939481 8.679000 16.596700 54.973200 1.552283 19.860142 16.091305 2.905964 -0.932932 -0.947902 3.840803 -22.793341 -38.483520 -2.628900 -10.068600 29.199200 1.944498 0.951834 -5.406496 -11.056937 0.442942 -0.354976 7.844633 -3.463931 12.805425 0.011700 -1.401000 1.782700 -77.988391 7.158230 26.940798 2.097443 -8.587101 -0.365626 -0.069371 0.379020 -9.752858 -7.125000 0.000000 0.000000 -38.896527 9.338666 -75.084094 -4.602792 15.489749 -1.135578 6.012610 8.674685 9.766736 7.125000 0.000000 0.000000 
11.078246 17.753447 34.484662 -177.382344 -5.596170 -175.180094 10.113123 -23.408376 10.428724 -1.374836 1.326297 -2.599527 9.360347 -12.223359 -11.383550 8.728000 16.629400 55.144500 1.660412 19.747417 16.265906 2.914434 -0.944323 -0.882658 3.744014 -22.680137 -38.758961 -2.619300 -10.051600 29.144100 1.941145 0.734927 -5.448825 -11.036834 0.332492 -0.231725 8.030137 -3.473612 12.909771 0.155900 -1.418500 1.799600 -77.787335 7.300759 27.084996 2.083387 -8.565633 -0.363238 -0.023396 0.360609 -8.639664 -7.125000 0.000000 0.000000 -39.316435 9.503498 -76.205643 -4.567171 15.604402 -1.119924 6.113881 8.573121 10.260311 7.125000 0.000000 0.000000 
11.074313 17.759968 34.475658 -177.436791 -5.145580 -175.334903 9.638649 -24.022102 11.246932 -1.411722 1.396872 -2.767197 9.773724 -12.981457 -12.558791 8.736500 16.635100 55.174200 1.087384 18.833253 15.472758 2.845988 -1.172405 -0.360953 4.225891 -23.033359 -36.709977 -2.307400 -9.478900 27.305200 1.907404 0.969421 -5.461757 -10.926160 0.434318 -0.296346 7.923723 -3.552269 13.123997 0.128400 -1.451500 1.897300 -77.618617 7.507724 27.255443 2.208738 -8.745463 -0.380428 0.010830 0.336987 -8.091731 -7.125000 0.000000 0.000000 -39.715540 9.571591 -76.505358 -4.634946 15.800348 -1.135139 6.046266 8.572484 9.955082 7.125000 0.000000 0.000000 
11.070276 17.759140 34.455993 -177.463920 -5.367904 -175.442274 9.520350 -24.200855 11.437608 -1.402257 1.399545 -2.822048 9.971509 -13.483748 -12.440584 8.786200 16.668200 55.347900 1.013221 18.379185 15.450810 2.822502 -1.217560 -0.260012 4.458908 -23.455305 -36.035918 -2.117800 -9.107200 26.131100 1.914882 0.905404 -5.484682 -10.769760 0.399923 -0.263624 7.757199 -3.624033 13.310543 0.074400 -1.486000 1.930200 -77.399427 7.947986 27.467820 2.512600 -9.203181 -0.427249 0.054057 0.303315 -7.667791 -7.125000 0.000000 0.000000 -40.101789 9.596998 -76.261841 -4.742469 16.021363 -1.154414 5.932186 8.640296 9.217913 7.125000 0.000000 0.000000 
11.068310 17.756966 34.437157 -177.589150 -5.522975 -175.507929 9.260226 -24.563161 11.736889 -1.426196 1.409722 -2.909667 10.054721 -13.672835 -12.674240 8.826300 16.694600 55.487400 0.856601 18.169942 15.504235 2.792223 -1.203347 -0.333433 4.717114 -23.934718 -35.330541 -1.975900 -8.815600 25.220200 1.892976 0.919551 -5.496212 -10.715191 0.392440 -0.236108 7.533477 -3.732090 13.143714 -0.032400 -1.549200 1.780500 -77.169012 8.178444 28.894230 2.686127 -9.456741 -0.445693 0.055447 0.279091 -8.431301 -7.125000 0.000000 0.000000 -40.368797 9.525396 -76.074034 -4.843749 16.198862 -1.174295 5.889165 8.694818 8.630542 7.125000 0.000000 0.000000 
11.064170 17.752102 34.412939 -177.744475 -6.398038 -175.438884 9.369870 -24.610848 11.290326 -1.449130 1.343001 -2.817649 9.535565 -12.686174 -11.736195 8.810900 16.684500 55.433900 0.673596 17.217411 15.521222 2.734006 -1.227034 -0.186410 4.624575 -23.394258 -34.690679 -1.933900 -8.727100 24.945400 1.914828 0.549407 -5.541321 -10.581934 0.205091 -0.093835 7.525545 -3.792662 13.180368 -0.011800 -1.584400 1.768500 -77.178299 8.185059 27.858631 2.535556 -9.238470 -0.427679 0.065572 0.279874 -6.990798 -7.125000 0.000000 0.000000 -40.639645 9.516458 -75.830985 -4.980621 16.434103 -1.218847 5.745908 8.749691 7.948973 7.125000 0.000000 0.000000 
